<svg width="21" height="20" viewBox="0 0 21 20" fill="none" xmlns="http://www.w3.org/2000/svg">
<path d="M1.04043 10.327C0.293977 10.7186 0.324944 11.2922 1.10752 11.6018L3.42623 12.5192C4.20946 12.8302 5.39462 12.6605 6.05849 12.1425L16.1275 4.20183C16.7895 3.68118 16.8604 3.75796 16.2856 4.37344L8.32559 12.8934C7.74882 13.507 7.91914 14.2605 8.70494 14.5644L8.97656 14.6702C9.76236 14.9741 11.043 15.4844 11.8237 15.8018L14.3953 16.8489C15.1766 17.1663 16.0114 16.7922 16.2333 15.9792L20.1527 1.5728C20.374 0.759892 19.9443 0.414731 19.1978 0.805698L1.04043 10.327Z" fill="white"/>
<path d="M7.40366 19.7585C7.35785 19.8959 8.98947 17.3959 8.98947 17.3959C9.45076 16.6914 9.18882 15.8508 8.40947 15.5321L6.63011 14.8037C5.85076 14.485 5.47721 14.8592 5.79979 15.6379C5.79979 15.6379 7.45076 19.6172 7.40366 19.7585Z" fill="white"/>
</svg>
