<svg width="18" height="14" viewBox="0 0 18 14" fill="none" xmlns="http://www.w3.org/2000/svg">
<path d="M16.1835 3.53744C16.1945 3.68844 16.1945 3.83944 16.1945 3.99144C16.1945 8.59644 12.6885 13.9034 6.28148 13.9034C4.30748 13.9034 2.47348 13.3314 0.930481 12.3394C1.21148 12.3714 1.48148 12.3814 1.77248 12.3814C3.40148 12.3814 4.89948 11.8314 6.09748 10.8934C4.56548 10.8614 3.28248 9.85744 2.84048 8.47644C3.05548 8.50844 3.27148 8.53044 3.49648 8.53044C3.81048 8.53044 4.12348 8.48744 4.41448 8.41244C2.81848 8.08844 1.62048 6.68644 1.62048 4.99344C1.62048 4.98244 1.62048 4.96044 1.62048 4.95044C2.08448 5.20844 2.62348 5.37044 3.19548 5.39244C2.25748 4.76644 1.64248 3.69844 1.64248 2.49144C1.64248 1.84444 1.81548 1.25044 2.11748 0.732436C3.83248 2.84744 6.41048 4.22844 9.30148 4.37844C9.24648 4.11944 9.21448 3.84944 9.21448 3.57944C9.21448 1.66044 10.7685 0.0964355 12.6985 0.0964355C13.7015 0.0964355 14.6075 0.516436 15.2445 1.19644C16.0315 1.04544 16.7855 0.754436 17.4555 0.355436C17.1965 1.16444 16.6465 1.84444 15.9235 2.27444C16.6255 2.19944 17.3045 2.00544 17.9305 1.73544C17.4555 2.42544 16.8625 3.04144 16.1835 3.53744Z" fill="#0A142F"/>
</svg>
