<svg width="15" height="18" viewBox="0 0 15 18" fill="none" xmlns="http://www.w3.org/2000/svg">
<path fill-rule="evenodd" clip-rule="evenodd" d="M3.19748 0.5C3.39848 1.088 3.60648 1.686 3.81448 2.274C4.11848 3.156 4.30848 3.82 4.39448 4.285V6.856H5.34248V4.285L6.49048 0.5H5.52248L4.87748 2.995L4.20448 0.5H3.19748ZM7.76148 6.922C8.19848 6.922 8.53048 6.761 8.76748 6.438C8.94848 6.201 9.03248 5.821 9.03248 5.318V3.658C9.03248 3.155 8.94848 2.785 8.76748 2.548C8.52948 2.227 8.19748 2.065 7.76148 2.065C7.33348 2.065 7.00148 2.226 6.76648 2.548C6.58548 2.786 6.50048 3.156 6.50048 3.659V5.319C6.50048 5.822 6.58548 6.192 6.76648 6.439C7.00148 6.761 7.33348 6.922 7.76148 6.922ZM7.35348 3.488C7.35348 3.052 7.48648 2.834 7.76148 2.834C8.04648 2.834 8.16948 3.052 8.16948 3.488V5.48C8.16948 5.917 8.04648 6.144 7.76148 6.144C7.48648 6.144 7.35348 5.916 7.35348 5.48V3.488ZM9.73548 5.86C9.73548 6.201 9.76248 6.428 9.81048 6.571C9.89548 6.809 10.0945 6.922 10.3695 6.922C10.6845 6.922 11.0065 6.732 11.3475 6.334V6.856H12.2105V2.122H11.3475V5.736C11.1575 6.011 10.9775 6.144 10.8075 6.144C10.6935 6.144 10.6275 6.069 10.6085 5.936C10.5985 5.916 10.5985 5.803 10.5985 5.603V2.122H9.73548V5.86ZM13.0935 12.311V12.747H12.2395V12.311C12.2395 11.884 12.3825 11.665 12.6665 11.665C12.9505 11.666 13.0935 11.884 13.0935 12.311ZM14.7435 9.285C14.5725 8.535 13.9555 7.985 13.2255 7.9C11.4795 7.71 9.71448 7.71 7.95948 7.71C6.20448 7.71 4.43948 7.71 2.70348 7.9C1.96548 7.985 1.35748 8.535 1.17748 9.285C0.940481 10.347 0.930481 11.505 0.930481 12.605C0.930481 13.696 0.930481 14.862 1.17748 15.925C1.34848 16.675 1.96548 17.225 2.69548 17.301C4.44048 17.5 6.20548 17.5 7.96048 17.5C9.71548 17.5 11.4805 17.5 13.2265 17.301C13.9555 17.225 14.5635 16.675 14.7445 15.925C14.9815 14.863 14.9915 13.696 14.9915 12.605L14.9915 12.591V12.591C14.9905 11.4952 14.9894 10.3425 14.7435 9.285ZM3.92948 10.243H4.94348V9.351H1.98348V10.243H2.98048V15.641H3.92948V10.243ZM7.50548 15.641H6.66048V15.129C6.31848 15.518 5.99648 15.708 5.69248 15.708C5.41848 15.708 5.21848 15.594 5.14248 15.357C5.09448 15.215 5.06648 14.996 5.06648 14.665V10.956H5.91148V14.409C5.91148 14.609 5.91148 14.713 5.92048 14.742C5.94048 14.874 6.00648 14.941 6.11948 14.941C6.29148 14.941 6.47148 14.809 6.66048 14.543V10.957H7.50548V15.641ZM10.6455 15.185C10.7115 14.986 10.7315 14.674 10.7315 14.237V12.368C10.7315 11.931 10.7115 11.619 10.6455 11.429C10.5415 11.078 10.3035 10.898 9.97148 10.898C9.65848 10.898 9.36348 11.068 9.08848 11.41V9.351H8.24548V15.641H9.08848V15.185C9.37348 15.536 9.66848 15.707 9.97148 15.707C10.3035 15.707 10.5415 15.527 10.6455 15.185ZM13.9375 13.459H12.2395V14.284C12.2395 14.721 12.3825 14.938 12.6765 14.938C12.8855 14.938 13.0085 14.825 13.0565 14.597C13.0655 14.55 13.0755 14.36 13.0755 14.018H13.9385V14.142C13.9385 14.417 13.9385 14.607 13.9195 14.692C13.8995 14.881 13.8235 15.052 13.7205 15.204C13.4915 15.536 13.1415 15.707 12.6965 15.707C12.2505 15.707 11.9175 15.546 11.6715 15.223C11.4915 14.995 11.3965 14.625 11.3965 14.122V12.481C11.3965 11.978 11.4825 11.618 11.6625 11.38C11.9095 11.057 12.2415 10.896 12.6785 10.896C13.1065 10.896 13.4375 11.057 13.6835 11.38C13.8555 11.617 13.9405 11.977 13.9405 12.481V13.459H13.9375ZM9.88648 14.303V12.301C9.88648 11.884 9.76248 11.666 9.51648 11.666C9.37348 11.666 9.23148 11.732 9.08848 11.875V14.73C9.23148 14.872 9.37348 14.938 9.51648 14.938C9.76248 14.938 9.88648 14.73 9.88648 14.303Z" fill="#0A142F"/>
</svg>
